<?xml version="1.0" encoding="UTF-8" standalone="no"?>
<!-- Created with Inkscape (http://www.inkscape.org/) -->

<svg
   version="1.1"
   id="svg2"
   xml:space="preserve"
   width="1632.452"
   height="2260.8789"
   viewBox="0 0 1632.4521 2260.8789"
   sodipodi:docname="34c074223b013a781150cedb6f4230d7.eps"
   xmlns:inkscape="http://www.inkscape.org/namespaces/inkscape"
   xmlns:sodipodi="http://sodipodi.sourceforge.net/DTD/sodipodi-0.dtd"
   xmlns="http://www.w3.org/2000/svg"
   xmlns:svg="http://www.w3.org/2000/svg"><defs
     id="defs6" /><sodipodi:namedview
     id="namedview4"
     pagecolor="#ffffff"
     bordercolor="#666666"
     borderopacity="1.0"
     inkscape:pageshadow="2"
     inkscape:pageopacity="0.0"
     inkscape:pagecheckerboard="0" /><g
     id="g8"
     inkscape:groupmode="layer"
     inkscape:label="ink_ext_XXXXXX"
     transform="matrix(1.3333333,0,0,-1.3333333,-597.98954,2545.5601)"><g
       id="g10"
       transform="scale(0.1)"><path
         d="m 16279.3,14536.3 c 0,266.9 -216.5,483.4 -483.5,483.4 h -2153.3 v -966.9 h 1669.8 V 7972 L 13642.5,6560.5 V 5294.6 l 2465.4,2083.8 c 108.7,91.9 171.4,226.9 171.4,369.2 v 6788.7"
         style="fill:#ffffff;fill-opacity:1;fill-rule:nonzero;stroke:none"
         id="path12" /><g
         id="g14"
         transform="scale(1.17127)"><path
           d="M 11647.6,11614.6 H 12690 V 6984.22 l -1042.4,-881.01 z m -5736.27,4302.1 c 438.19,0 831.59,-191.1 1102.1,-494.1 210.4,214.4 503.36,347.6 827.56,347.6 454.9,0 848.39,-262.1 1038.27,-643.5 234.53,129.9 504.15,204 791.19,204 807.65,0 1478.25,-585.6 1611.15,-1355.4 H 5862.46 v -2377.9 c 0,-219.7 -178.12,-397.9 -397.83,-397.9 -86.78,0 -166.85,28.1 -232.25,75.3 v -494.9 c 0,-219.7 -178.14,-397.8 -397.85,-397.8 -219.71,0 -397.8,178.1 -397.8,397.8 v 3343.4 c 0,35.7 -2.33,243.8 -2.33,316.4 0,815.7 661.24,1477 1476.93,1477 z M 10761.7,2225.54 c -46.3,-9.57 -93.9,-15.63 -142.4,-18.02 -16.1,-0.85 -32.4,-1.28 -48.8,-1.28 H 5160.9 c -16.34,0 -32.65,0.43 -48.79,1.28 -48.52,2.39 -96.04,8.45 -142.34,18.02 -432.19,88.36 -757.29,470.77 -757.29,929.16 0,163.75 42.45,317.09 115.76,451.39 17.58,32.19 37.12,63.1 58.2,92.89 h 1841.82 c 105.85,0 191.66,85.8 191.66,191.67 0,105.87 -85.81,191.68 -191.66,191.68 H 4467.15 V 10091 c 109.62,-58.7 234.62,-92.23 367.38,-92.23 430.76,0 781.21,350.43 781.21,781.13 v 51 c 349.82,68.8 615.82,372 628.82,738.6 0.33,9.3 1.24,18.5 1.24,27.9 V 13592 h 5018.5 v -2022.5 h 0.1 V 4082.33 H 7309.89 c -105.86,0 -191.68,-85.81 -191.68,-191.68 0,-105.87 85.82,-191.67 191.68,-191.67 H 11345 c 58.7,-83.07 105.2,-175.36 134.9,-275.09 25.4,-85.29 39.1,-175.62 39.1,-269.19 0,-458.39 -325.2,-840.8 -757.3,-929.16 z M 13752.5,6299.49 11647.6,4520.4 v 1080.79 l 1425.7,1205.1 v 5191.61 h -1425.7 v 825.5 h 1838.5 c 227.9,0 412.8,-184.8 412.8,-412.7 V 6614.71 c 0,-121.49 -53.6,-236.75 -146.4,-315.22 z m -266.4,6907.31 h -1838.5 v 468.2 c 0,45.6 -8.3,89.2 -23,129.8 35.9,72.2 48.8,154.7 34.8,235.7 -167.4,969.8 -1003.9,1673.6 -1988.95,1673.6 -221.63,0 -441.74,-36.7 -650.23,-107.6 -288.92,343.9 -715.56,547.1 -1179.23,547.1 -290.85,0 -568.86,-79.7 -809.68,-229 -320.3,241.5 -713.27,375.4 -1119.98,375.4 -1025.77,0 -1860.3,-834.5 -1860.3,-1860.3 0,-43.4 0.8,-134.4 1.5,-209.4 0.43,-50.1 0.84,-92.7 0.84,-107 v -3343.4 c 0,-74.1 11.04,-145.6 30.44,-213.6 V 3936.5 c -165.18,-226.68 -254.7,-499.03 -254.7,-781.8 0,-734.33 597.45,-1331.8 1331.79,-1331.8 h 5409.6 c 734.4,0 1331.8,597.47 1331.8,1331.8 0,282.86 -89.5,555.21 -254.7,781.8 v 81.97 l 2352.3,1988.26 c 179.3,151.47 282.3,373.1 282.3,607.98 v 5795.99 c 0,438.9 -357.1,796.1 -796.1,796.1"
           style="fill:#441e1d;fill-opacity:1;fill-rule:nonzero;stroke:none"
           id="path16" /></g><path
         d="m 4933.95,3695 c 0,191.8 49.72,371.4 135.58,528.7 -85.86,-157.3 -135.58,-336.9 -135.58,-528.7 0,-536.9 380.78,-984.8 886.99,-1088.3 -506.21,103.5 -886.99,551.5 -886.99,1088.3"
         style="fill:#ffffff;fill-opacity:1;fill-rule:nonzero;stroke:none"
         id="path18" /><path
         d="m 5987.66,2585.6 c -56.84,2.8 -112.5,9.9 -166.72,21.1 54.22,-11.2 109.88,-18.3 166.72,-21.1"
         style="fill:#ffffff;fill-opacity:1;fill-rule:nonzero;stroke:none"
         id="path20" /><path
         d="m 12604.8,2606.7 c 506.2,103.5 887,551.4 887,1088.3 0,-536.8 -380.8,-984.8 -887,-1088.3"
         style="fill:#ffffff;fill-opacity:1;fill-rule:nonzero;stroke:none"
         id="path22" /><path
         d="m 12604.8,2606.7 c -54.2,-11.2 -109.9,-18.3 -166.7,-21.1 56.8,2.8 112.5,9.9 166.7,21.1"
         style="fill:#ffffff;fill-opacity:1;fill-rule:nonzero;stroke:none"
         id="path24" /><path
         d="m 13193.5,13551 v 2368.8 H 7315.51 v -2336.2 c 0,-11 -1.06,-21.7 -1.45,-32.6 h 5879.44"
         style="fill:#ffffff;fill-opacity:1;fill-rule:nonzero;stroke:none"
         id="path26" /><path
         d="m 13491.8,3695 c 0,109.6 -16,215.4 -45.7,315.3 -34.8,116.8 -89.3,224.9 -158.1,322.2 H 8561.84 c -123.99,0 -224.5,100.5 -224.5,224.5 0,124 100.51,224.5 224.5,224.5 H 13193.6 V 13551 h -0.1 -5879.44 c -15.23,-429.4 -326.79,-784.6 -736.52,-865.1 v -59.7 c 0,-504.5 -410.47,-914.9 -915,-914.9 -155.51,0 -301.91,39.2 -430.31,107.9 V 4781.5 h 2062.73 c 123.99,0 224.49,-100.5 224.49,-224.5 0,-124 -100.5,-224.5 -224.49,-224.5 H 5137.7 c -24.69,-34.9 -47.58,-71.1 -68.17,-108.8 -85.86,-157.3 -135.58,-336.9 -135.58,-528.7 0,-536.8 380.78,-984.8 886.99,-1088.3 54.22,-11.2 109.88,-18.3 166.72,-21.1 18.9,-1 38,-1.5 57.14,-1.5 h 6336.1 c 19.2,0 38.3,0.5 57.2,1.5 56.8,2.8 112.5,9.9 166.7,21.1 506.2,103.5 887,551.5 887,1088.3"
         style="fill:#fab939;fill-opacity:1;fill-rule:nonzero;stroke:none"
         id="path28" /><g
         id="g30"
         transform="scale(1.14372)"><path
           d="m 4543.58,14463.5 v -3423.9 c 0,-225 182.39,-407.5 407.39,-407.5 225,0 407.42,182.5 407.42,407.5 v 506.8 c 66.98,-48.4 148.98,-77.1 237.85,-77.1 225,0 407.41,182.4 407.41,407.4 v 2435.2 h 5549.65 c -136.1,788.3 -822.8,1388.1 -1649.95,1388.1 -293.95,0 -570.07,-76 -810.25,-209 -194.45,390.5 -597.41,659 -1063.27,659 -332.01,0 -632.02,-136.4 -847.49,-356 -277.03,310.4 -679.91,506 -1128.65,506 -835.33,0 -1512.5,-677.2 -1512.5,-1512.6 0,-74.3 2.39,-287.4 2.39,-323.9"
           style="fill:#ffffff;fill-opacity:1;fill-rule:nonzero;stroke:none"
           id="path32" /></g></g></g></svg>
