<svg xmlns="http://www.w3.org/2000/svg" xmlns:xlink="http://www.w3.org/1999/xlink" version="1.1" width="1518" height="2102" viewBox="0 0 1518 2102" xml:space="preserve">
<desc>Created with Fabric.js 3.5.0</desc>
<defs>
</defs>
<rect x="0" y="0" width="100%" height="100%" fill="rgba(255,255,255,0)"/>
<g transform="matrix(0.1434 0 0 -0.1447 758.952 1051.1329)" id="693355">
<path style="stroke: none; stroke-width: 1; stroke-dasharray: none; stroke-linecap: butt; stroke-dashoffset: 0; stroke-linejoin: miter; stroke-miterlimit: 4; is-custom-font: none; font-file-url: none; fill: rgb(255,255,255); fill-rule: nonzero; opacity: 1;" vector-effect="non-scaling-stroke" transform=" translate(-9055.625, -9061.49)" d="M 11264.3 11952.9 H 6245.8 V 13592 h 5018.5 z m 383.3 -383 v 44.7 H 12690 V 6984.22 l -1042.4 -881.01 v 5466.29 c 0 0.2 0 0.3 0 0.4 z m -795 -9320.97 c -89.1 -27.75 -183.8 -42.6 -282.1 -42.6 h -5409.57 h -0.03 c -294.61 0 -557.88 134.29 -731.84 345.09 c -135.27 163.93 -216.58 374.13 -216.58 603.28 c 0 62.41 6.1 123.37 17.64 182.28 c 26.09 132.94 80.91 255.2 156.32 362 h 1841.82 c 105.85 0 191.66 85.8 191.66 191.76 c 0 105.78 -85.81 191.67 -191.66 191.67 H 4467.15 V 10091 c 109.62 -58.7 234.62 -92.23 367.38 -92.23 c 430.76 0 781.21 350.43 781.21 781.23 v 50.8 c 349.78 68.9 615.82 372.1 628.82 738.7 H 11264.4 V 4082.41 H 7309.89 c -105.86 0 -191.68 -85.89 -191.68 -191.67 c 0 -105.96 85.82 -191.76 191.68 -191.76 H 11345 c 108.9 -154.11 174 -341.17 174 -544.28 c 0 -425.61 -280.3 -785.64 -666.4 -905.77 z M 5911.33 15916.6 c 438.19 0 831.59 -190.9 1102.1 -494 c 210.4 214.4 503.36 347.6 827.56 347.6 c 454.9 0 848.39 -262.1 1038.36 -643.4 c 234.44 129.8 504.06 203.9 791.1 203.9 c 807.65 0 1478.25 -585.6 1611.15 -1355.4 H 5862.46 v -2377.9 c 0 -219.7 -178.12 -397.8 -397.83 -397.8 c -86.78 0 -166.85 28 -232.25 75.2 V 10780 c 0 -219.7 -178.14 -397.9 -397.85 -397.9 c -219.71 0 -397.8 178.2 -397.8 397.9 v 3343.4 c 0 35.6 -2.37 243.7 -2.37 316.3 c 0 815.7 661.28 1476.9 1476.97 1476.9 z M 13752.5 6299.58 L 11647.6 4520.48 v 1080.8 l 1425.7 1205.01 v 5191.61 h -1425.7 v 825.5 h 1838.5 c 227.9 0 412.7 -184.8 412.7 -412.7 V 6614.71 c 0 -121.49 -53.5 -236.75 -146.3 -315.13 z m -266.4 6907.22 h -1838.5 v 468.2 c 0 45.7 -8.3 89.2 -23 129.8 c 35.9 72.3 48.8 154.7 34.8 235.8 c -167.4 969.7 -1004 1673.5 -1988.95 1673.5 c -221.63 0 -441.74 -36.7 -650.23 -107.6 c -288.92 343.9 -715.56 547 -1179.23 547 c -290.85 0 -568.86 -79.7 -809.68 -228.8 c -320.3 241.4 -713.27 375.3 -1119.98 375.3 c -1025.77 0 -1860.3 -834.5 -1860.3 -1860.3 c 0 -43.4 0.83 -134.3 1.5 -209.4 c 0.43 -50.1 0.84 -92.7 0.84 -106.9 V 10780 c 0 -74.2 11.04 -145.6 30.41 -213.7 V 3936.5 c -144.48 -198.33 -231.09 -431.58 -250.47 -676.27 c -2.76 -35.01 -4.16 -70.18 -4.16 -105.53 c 0 -206.53 47.25 -402.21 131.53 -576.9 c 215.35 -446.18 672.42 -754.82 1200.22 -754.82 h 0.03 h 5409.57 c 298.4 0 574.1 98.53 796.3 264.84 c 34.3 25.62 67.2 52.85 98.7 81.54 c 268.2 243.75 436.8 595.25 436.8 985.34 c 0 282.86 -89.5 555.12 -254.7 781.8 v 81.97 l 2352.3 1988.26 c 179.4 151.47 282.2 373.1 282.2 607.98 v 5795.99 c 0 439 -357 796.1 -796 796.1" stroke-linecap="round"/>
</g>
</svg>