<svg xmlns="http://www.w3.org/2000/svg" xmlns:xlink="http://www.w3.org/1999/xlink" version="1.1" width="1000" height="671" viewBox="0 0 1000 671" xml:space="preserve">
<desc>Created with Fabric.js 3.5.0</desc>
<defs>
</defs>
<rect x="0" y="0" width="100%" height="100%" fill="rgba(255,255,255,0)"/>
<g transform="matrix(-0.4534 0 0 0.4534 500.6769 336.3377)" id="727411">
<g style="" vector-effect="non-scaling-stroke">
		<g transform="matrix(0.1485 0 0 -0.1485 -192.1662 -63.9827)" id="343826">
<path style="stroke: none; stroke-width: 1; stroke-dasharray: none; stroke-linecap: butt; stroke-dashoffset: 0; stroke-linejoin: miter; stroke-miterlimit: 4; is-custom-font: none; font-file-url: none; fill: rgb(183,64,48); fill-rule: nonzero; opacity: 1;" transform=" translate(-8229.335, -9960.675)" d="M 2257.77 12821.3 V 7131.85 c 0 0 5689.29 -3550.25 11943.13 0 v 5689.45 c -6449.27 3478.7 -11943.13 0 -11943.13 0" stroke-linecap="round"/>
</g>
		<g transform="matrix(0.1333 0 0 -0.1333 -192.4127 -64.1678)" id="509650">
<path style="stroke: none; stroke-width: 1; stroke-dasharray: none; stroke-linecap: butt; stroke-dashoffset: 0; stroke-linejoin: miter; stroke-miterlimit: 4; is-custom-font: none; font-file-url: none; fill: rgb(10,8,7); fill-rule: nonzero; opacity: 1;" transform=" translate(-9165.2, -11093.4)" d="M 2514.53 14279.4 H 2389.8 V 7942.9 c 0 -42.9 22.27 -83.1 58.68 -105.8 c 5.58 -3.4 716.72 -446.7 1923.75 -889.9 c 1207.03 -443.1 2910.35 -886.3 4899.57 -886.4 c 1988.9 -0.2 4264.1 444.2 6605.7 1773.7 c 39.1 22.2 63.1 63.5 63.1 108.4 v 6336.5 c 0 45.7 -25.2 88.1 -65.5 109.7 c -2413.2 1301.9 -4711.5 1737.1 -6700.06 1736.9 c -1988.83 0 -3668.16 -434.3 -4851.17 -868.6 c -1183.09 -434.4 -1870.32 -869 -1876.06 -872.6 c -36.29 -23 -58.01 -62.5 -58.01 -105.4 h 124.73 l 66.72 -105.4 l 1.45 0.9 c 35.85 22.5 723.2 448.5 1881.95 868.3 c 1158.83 419.9 2788.59 833.4 4710.39 833.4 c 1952.46 -0.2 4206.26 -425.9 6581.56 -1707 l 59.3 109.8 h -124.7 V 7942.9 h 124.7 l -61.6 108.5 C 13452.5 6744.8 11224 6310.5 9271.8 6310.3 c -1951.96 -0.1 -3627.23 435.4 -4813.6 871 c -593.16 217.8 -1063.94 435.5 -1385.78 598.3 c -160.9 81.5 -284.57 149.1 -367.65 196.3 c -41.57 23.6 -72.93 42 -93.79 54.5 c -10.43 6.1 -18.21 10.8 -23.28 14 l -5.67 3.4 l -1.48 0.9 l -66.02 -105.8 h 124.73 v 6336.5 h -124.73 l 66.72 -105.4 l -66.72 105.4" stroke-linecap="round"/>
</g>
		<g transform="matrix(0.1333 0 0 -0.1333 -192.4029 -400.4741)" id="368104">
<path style="stroke: none; stroke-width: 1; stroke-dasharray: none; stroke-linecap: butt; stroke-dashoffset: 0; stroke-linejoin: miter; stroke-miterlimit: 4; is-custom-font: none; font-file-url: none; fill: rgb(10,8,7); fill-rule: nonzero; opacity: 1;" transform=" translate(-9165.2735, -13616.7098)" d="m 15875 12865.6 c -2413.2 1301.8 -4711.5 1737 -6700.12 1736.8 c -1974.1 -0.1 -3643.28 -427.9 -4824.8 -859 c -1181.6 -431.1 -1876.02 -865.6 -1901.72 -881.8 c -58.32 -36.7 -75.82 -113.7 -39.06 -172 c 36.68 -58.3 113.71 -75.8 171.95 -39.1 c 14.18 9 693.87 435.2 1854.34 858.6 c 1160.5 423.5 2801.44 843.9 4739.29 843.8 c 1952.52 -0.1 4206.32 -425.9 6581.72 -1706.9 c 60.5 -32.7 136.2 -10.1 168.9 50.6 c 32.7 60.6 10.1 136.3 -50.5 169" stroke-linecap="round"/>
</g>
		<g transform="matrix(0.1333 0 0 -0.1333 -192.4018 279.0083)" id="218734">
<path style="stroke: none; stroke-width: 1; stroke-dasharray: none; stroke-linecap: butt; stroke-dashoffset: 0; stroke-linejoin: miter; stroke-miterlimit: 4; is-custom-font: none; font-file-url: none; fill: rgb(10,8,7); fill-rule: nonzero; opacity: 1;" transform=" translate(-9165.2815, -8520.5917)" d="m 15756.6 9491.3 c -2375.4 -1281 -4629.2 -1706.7 -6581.72 -1706.9 c -1937.85 -0.1 -3578.79 420.3 -4739.29 843.8 c -1160.47 423.3 -1840.16 849.7 -1854.3 858.6 c -58.28 36.8 -135.27 19.3 -171.99 -39.1 c -36.72 -58.2 -19.26 -135.2 39.02 -172 c 25.78 -16.1 720.12 -450.7 1901.76 -881.8 c 1181.52 -431.1 2850.7 -858.9 4824.8 -859 c 1988.62 -0.1 4286.92 435 6700.12 1736.9 c 60.6 32.7 83.2 108.4 50.5 169 c -32.7 60.6 -108.4 83.2 -168.9 50.5" stroke-linecap="round"/>
</g>
		<g transform="matrix(0.1333 0 0 -0.1333 -192.3945 -60.7066)" id="67349">
<path style="stroke: none; stroke-width: 1; stroke-dasharray: none; stroke-linecap: butt; stroke-dashoffset: 0; stroke-linejoin: miter; stroke-miterlimit: 4; is-custom-font: none; font-file-url: none; fill: rgb(183,64,48); fill-rule: nonzero; opacity: 1;" transform=" translate(-9165.305, -11068.7)" d="M 2514.61 11068.7 H 15816" stroke-linecap="round"/>
</g>
		<g transform="matrix(0.1333 0 0 -0.1333 -192.4007 -60.7042)" id="343208">
<path style="stroke: none; stroke-width: 1; stroke-dasharray: none; stroke-linecap: butt; stroke-dashoffset: 0; stroke-linejoin: miter; stroke-miterlimit: 4; is-custom-font: none; font-file-url: none; fill: rgb(10,8,7); fill-rule: nonzero; opacity: 1;" transform=" translate(-9165.29, -11068.65)" d="M 2514.61 10943.9 H 15816 c 68.9 0 124.7 55.9 124.7 124.8 c 0 68.8 -55.8 124.7 -124.7 124.7 H 2514.61 c -68.91 0 -124.73 -55.9 -124.73 -124.7 c 0 -68.9 55.82 -124.8 124.73 -124.8" stroke-linecap="round"/>
</g>
		<g transform="matrix(0.1333 0 0 -0.1333 -764.5754 -66.1196)" id="490757">
<path style="stroke: none; stroke-width: 1; stroke-dasharray: none; stroke-linecap: butt; stroke-dashoffset: 0; stroke-linejoin: miter; stroke-miterlimit: 4; is-custom-font: none; font-file-url: none; fill: rgb(247,152,44); fill-rule: nonzero; opacity: 1;" transform=" translate(-4872.44, -11108.2)" d="m 5489.14 15499 c -457.26 -125.6 -870.82 -263.5 -1233.4 -400.2 V 7124.1 c 363.17 -138.2 776.99 -278.3 1233.4 -406.7 V 15499" stroke-linecap="round"/>
</g>
		<g transform="matrix(0.1333 0 0 -0.1333 -764.5789 -66.1173)" id="624383">
<path style="stroke: none; stroke-width: 1; stroke-dasharray: none; stroke-linecap: butt; stroke-dashoffset: 0; stroke-linejoin: miter; stroke-miterlimit: 4; is-custom-font: none; font-file-url: none; fill: rgb(10,8,7); fill-rule: nonzero; opacity: 1;" transform=" translate(-4872.445, -11108.1514)" d="m 5489.14 15499 l -33.05 120.3 c -461.21 -126.8 -878.36 -265.9 -1244.33 -403.8 c -48.63 -18.3 -80.74 -64.8 -80.74 -116.7 V 7124.1 c 0 -51.6 32.14 -98.1 80.35 -116.5 c 366.4 -139.5 783.75 -280.8 1244.02 -410.3 c 37.7 -10.6 77.85 -3 109.06 20.6 c 31.25 23.7 49.42 60.3 49.42 99.5 V 15499 c 0 38.7 -18.32 75.7 -49.1 99.2 c -30.82 23.5 -71.29 31.3 -108.68 21.1 l 33.05 -120.3 H 5364.45 V 6717.4 h 124.69 l 33.79 120.1 C 5070.35 6964.8 4660 7103.7 4300.12 7240.7 l -44.38 -116.6 h 124.73 v 7974.7 h -124.73 l 43.99 -116.7 c 359.22 135.4 769.14 272.1 1222.46 396.7 l -33.05 120.2 h -124.69 h 124.69" stroke-linecap="round"/>
</g>
		<g transform="matrix(0.1333 0 0 -0.1333 375.3126 -60.8396)" id="20656">
<path style="stroke: none; stroke-width: 1; stroke-dasharray: none; stroke-linecap: butt; stroke-dashoffset: 0; stroke-linejoin: miter; stroke-miterlimit: 4; is-custom-font: none; font-file-url: none; fill: rgb(247,152,44); fill-rule: nonzero; opacity: 1;" transform=" translate(-13421.6, -11068.6)" d="m 12804.9 6677.8 c 457.3 125.7 870.9 263.6 1233.4 400.3 v 7974.6 c -363.1 138.3 -776.9 278.4 -1233.4 406.7 V 6677.8" stroke-linecap="round"/>
</g>
		<g transform="matrix(0.1333 0 0 -0.1333 375.3084 -60.8541)" id="697399">
<path style="stroke: none; stroke-width: 1; stroke-dasharray: none; stroke-linecap: butt; stroke-dashoffset: 0; stroke-linejoin: miter; stroke-miterlimit: 4; is-custom-font: none; font-file-url: none; fill: rgb(10,8,7); fill-rule: nonzero; opacity: 1;" transform=" translate(-13421.6, -11068.6767)" d="m 12804.9 6677.8 l 33 -120.2 c 461.3 126.7 878.5 265.8 1244.4 403.8 c 48.6 18.3 80.7 64.8 80.7 116.7 v 7974.6 c 0 51.6 -32.1 98.2 -80.3 116.6 c -366.4 139.5 -783.7 280.7 -1244 410.2 c -37.8 10.6 -77.9 3 -109.1 -20.6 c -31.2 -23.7 -49.4 -60.3 -49.4 -99.5 V 6677.8 c 0 -38.7 18.3 -75.7 49.1 -99.1 c 30.8 -23.5 71.3 -31.4 108.6 -21.1 l -33 120.2 h 124.7 v 8781.6 h -124.7 l -33.8 -120 c 452.7 -127.3 863 -266.2 1222.8 -403.3 l 44.4 116.6 h -124.7 V 7078.1 h 124.7 l -44 116.7 c -359.1 -135.5 -769.1 -272.1 -1222.5 -396.7 l 33.1 -120.3 h 124.7 h -124.7" stroke-linecap="round"/>
</g>
		<g transform="matrix(0.1333 0 0 -0.1333 -764.5854 587.0138)" id="801927">
<path style="stroke: none; stroke-width: 1; stroke-dasharray: none; stroke-linecap: butt; stroke-dashoffset: 0; stroke-linejoin: miter; stroke-miterlimit: 4; is-custom-font: none; font-file-url: none; fill: rgb(22,18,17); fill-rule: nonzero; opacity: 1;" transform=" translate(-4872.48, -6210.55)" d="M 5948.71 5225.5 H 3796.25 V 7195.6 H 5948.71 V 5225.5" stroke-linecap="round"/>
</g>
		<g transform="matrix(0.1333 0 0 -0.1333 -764.5922 587.003)" id="87350">
<path style="stroke: none; stroke-width: 1; stroke-dasharray: none; stroke-linecap: butt; stroke-dashoffset: 0; stroke-linejoin: miter; stroke-miterlimit: 4; is-custom-font: none; font-file-url: none; fill: rgb(10,8,7); fill-rule: nonzero; opacity: 1;" transform=" translate(-4872.46, -6210.6)" d="m 5948.71 5225.5 v 124.7 H 3920.98 v 1720.7 h 1903 V 5225.5 h 124.73 v 124.7 v -124.7 h 124.69 v 1970.1 c 0 32.9 -13.28 65 -36.52 88.3 c -23.25 23.1 -55.36 36.5 -88.17 36.5 H 3796.25 c -32.81 0 -64.96 -13.4 -88.16 -36.5 c -23.25 -23.3 -36.57 -55.4 -36.57 -88.3 V 5225.5 c 0 -32.8 13.32 -65 36.57 -88.2 c 23.2 -23.2 55.35 -36.5 88.16 -36.5 h 2152.46 c 32.81 0 64.92 13.3 88.17 36.5 c 23.24 23.2 36.52 55.4 36.52 88.2 h -124.69" stroke-linecap="round"/>
</g>
		<g transform="matrix(0.1333 0 0 -0.1333 375.3039 587.0138)" id="794496">
<path style="stroke: none; stroke-width: 1; stroke-dasharray: none; stroke-linecap: butt; stroke-dashoffset: 0; stroke-linejoin: miter; stroke-miterlimit: 4; is-custom-font: none; font-file-url: none; fill: rgb(22,18,17); fill-rule: nonzero; opacity: 1;" transform=" translate(-13421.65, -6210.55)" d="m 14497.9 5225.5 h -2152.5 v 1970.1 h 2152.5 V 5225.5" stroke-linecap="round"/>
</g>
		<g transform="matrix(0.1333 0 0 -0.1333 375.2998 587.003)" id="908442">
<path style="stroke: none; stroke-width: 1; stroke-dasharray: none; stroke-linecap: butt; stroke-dashoffset: 0; stroke-linejoin: miter; stroke-miterlimit: 4; is-custom-font: none; font-file-url: none; fill: rgb(10,8,7); fill-rule: nonzero; opacity: 1;" transform=" translate(-13421.65, -6210.6)" d="m 14497.9 5225.5 v 124.7 h -2027.7 v 1720.7 h 1902.9 V 5225.5 h 124.8 v 124.7 v -124.7 h 124.7 v 1970.1 c 0 32.9 -13.3 65 -36.6 88.3 c -23.2 23.1 -55.3 36.5 -88.1 36.5 h -2152.5 c -32.8 0 -65 -13.4 -88.2 -36.5 c -23.2 -23.3 -36.5 -55.4 -36.5 -88.3 V 5225.5 c 0 -32.8 13.3 -65 36.5 -88.2 c 23.2 -23.2 55.4 -36.5 88.2 -36.5 h 2152.5 c 32.8 0 64.9 13.3 88.1 36.5 c 23.3 23.2 36.6 55.4 36.6 88.2 h -124.7" stroke-linecap="round"/>
</g>
		<g transform="matrix(0.154 0 0 -0.154 886.8028 63.9563)" id="340623">
<path style="stroke: none; stroke-width: 1; stroke-dasharray: none; stroke-linecap: butt; stroke-dashoffset: 0; stroke-linejoin: miter; stroke-miterlimit: 4; is-custom-font: none; font-file-url: none; fill: rgb(10,8,7); fill-rule: nonzero; opacity: 1;" transform=" translate(-14943.9, -8775.385)" d="m 13695.8 9476.28 c 532.4 0 1993.6 0 1993.6 0 c 109.3 -0.09 207.3 -43.99 279 -115.6 c 71.6 -71.71 115.5 -169.73 115.5 -279.01 c 0 0 0 -871.4 0 -1115.25 c 0 -59.66 48.5 -107.98 108.1 -107.98 c 59.7 0 108 48.32 108 107.98 c 0 121.92 0 400.76 0 649.11 c 0 124.18 0 240.73 0 326.2 c 0 85.47 0 139.77 0 139.94 c -0.1 337.28 -273.4 610.57 -610.6 610.66 c 0 0 -1461.2 0 -1993.6 0 c -59.7 0 -108 -48.4 -108 -108.07 c 0 -59.66 48.3 -107.98 108 -107.98" stroke-linecap="round"/>
</g>
		<g transform="matrix(0.1455 0 0 -0.1455 916.3973 -127.9062)" id="958736">
<path style="stroke: none; stroke-width: 1; stroke-dasharray: none; stroke-linecap: butt; stroke-dashoffset: 0; stroke-linejoin: miter; stroke-miterlimit: 4; is-custom-font: none; font-file-url: none; fill: rgb(247,152,44); fill-rule: nonzero; opacity: 1;" transform=" translate(-16012.9, -10601.45)" d="m 16300 10162.6 h -574.2 v 877.7 h 574.2 v -877.7" stroke-linecap="round"/>
</g>
		<g transform="matrix(0.1466 0 0 -0.1466 916.4222 -127.8708)" id="138320">
<path style="stroke: none; stroke-width: 1; stroke-dasharray: none; stroke-linecap: butt; stroke-dashoffset: 0; stroke-linejoin: miter; stroke-miterlimit: 4; is-custom-font: none; font-file-url: none; fill: rgb(10,8,7); fill-rule: nonzero; opacity: 1;" transform=" translate(-15901.45, -10527.695)" d="m 16186.6 10091.8 v 113.5 h -456.8 v 644.7 h 343.2 v -758.2 h 113.6 v 113.5 v -113.5 h 113.4 v 871.7 c 0 29.8 -12.1 59.1 -33.2 80.2 c -21.1 21.1 -50.4 33.3 -80.2 33.3 h -570.3 c -29.8 0 -59 -12.2 -80.2 -33.3 c -21.1 -21.1 -33.2 -50.4 -33.2 -80.2 v -871.7 c 0 -29.8 12.1 -59.1 33.2 -80.2 c 21.2 -21.11 50.4 -33.21 80.2 -33.21 h 570.3 c 29.8 0 59 12.1 80.2 33.21 c 21.1 21.1 33.2 50.4 33.2 80.2 h -113.4" stroke-linecap="round"/>
</g>
		<g transform="matrix(0.1503 0 0 -0.1503 916.4068 -241.3279)" id="132680">
<path style="stroke: none; stroke-width: 1; stroke-dasharray: none; stroke-linecap: butt; stroke-dashoffset: 0; stroke-linejoin: miter; stroke-miterlimit: 4; is-custom-font: none; font-file-url: none; fill: rgb(247,152,44); fill-rule: nonzero; opacity: 1;" transform=" translate(-15507.5, -11021.75)" d="m 16300 11021.7 c 0 -182.1 -147.7 -329.8 -329.9 -329.8 h -925.3 c -182.1 0 -329.8 147.7 -329.8 329.8 c 0 182.3 147.7 329.9 329.8 329.9 h 925.3 c 182.2 0 329.9 -147.6 329.9 -329.9" stroke-linecap="round"/>
</g>
		<g transform="matrix(0.1513 0 0 -0.1513 916.3923 -241.3354)" id="510552">
<path style="stroke: none; stroke-width: 1; stroke-dasharray: none; stroke-linecap: butt; stroke-dashoffset: 0; stroke-linejoin: miter; stroke-miterlimit: 4; is-custom-font: none; font-file-url: none; fill: rgb(10,8,7); fill-rule: nonzero; opacity: 1;" transform=" translate(-15402.85, -10947.3501)" d="m 16190 10947.4 h -109.9 c 0 -60.5 -24.2 -114.2 -63.8 -154 c -39.7 -39.6 -93.5 -63.7 -153.9 -63.8 h -919.1 c -60.4 0.1 -114.2 24.2 -153.9 63.8 c -39.6 39.8 -63.7 93.5 -63.8 154 c 0.1 60.5 24.2 114.2 63.8 153.9 c 39.7 39.6 93.5 63.8 153.9 63.8 h 919.1 c 60.4 0 114.2 -24.2 153.9 -63.8 c 39.6 -39.7 63.8 -93.4 63.8 -153.9 h 109.9 h 109.9 c 0.1 120.5 -49.2 230.6 -128.1 309.4 c -78.9 79 -188.9 128.2 -309.4 128.1 h -919.1 c -241.7 0 -437.5 -195.8 -437.5 -437.5 c -0.1 -120.5 49.2 -230.6 128.1 -309.4 c 78.8 -79 189 -128.2 309.4 -128.2 h 919.1 c 120.5 0 230.5 49.2 309.4 128.2 c 78.9 78.8 128.2 188.9 128.1 309.4 H 16190" stroke-linecap="round"/>
</g>
		<g transform="matrix(0.1333 0 0 -0.1333 -537.9407 -478.9365)" id="263575">
<path style="stroke: none; stroke-width: 1; stroke-dasharray: none; stroke-linecap: butt; stroke-dashoffset: 0; stroke-linejoin: miter; stroke-miterlimit: 4; is-custom-font: none; font-file-url: none; fill: rgb(255,255,255); fill-rule: nonzero; opacity: 1;" transform=" translate(-6572.17, -14205.3)" d="m 7067.62 14205.3 c 0 -273.6 -221.8 -495.4 -495.43 -495.4 c -273.67 0 -495.47 221.8 -495.47 495.4 c 0 273.6 221.8 495.4 495.47 495.4 c 273.63 0 495.43 -221.8 495.43 -495.4" stroke-linecap="round"/>
</g>
		<g transform="matrix(0.1333 0 0 -0.1333 -537.9358 -338.0516)" id="367740">
<path style="stroke: none; stroke-width: 1; stroke-dasharray: none; stroke-linecap: butt; stroke-dashoffset: 0; stroke-linejoin: miter; stroke-miterlimit: 4; is-custom-font: none; font-file-url: none; fill: rgb(255,255,255); fill-rule: nonzero; opacity: 1;" transform=" translate(-6572.17, -13148.7)" d="m 6921.33 13148.8 c 0 -192.9 -156.29 -349.3 -349.14 -349.3 c -192.89 0 -349.18 156.4 -349.18 349.3 c 0 192.7 156.29 349.1 349.18 349.1 c 192.85 0 349.14 -156.4 349.14 -349.1" stroke-linecap="round"/>
</g>
		<g transform="matrix(0.1333 0 0 -0.1333 -537.9332 -229.4556)" id="258156">
<path style="stroke: none; stroke-width: 1; stroke-dasharray: none; stroke-linecap: butt; stroke-dashoffset: 0; stroke-linejoin: miter; stroke-miterlimit: 4; is-custom-font: none; font-file-url: none; fill: rgb(255,255,255); fill-rule: nonzero; opacity: 1;" transform=" translate(-6572.17, -12334.25)" d="m 6841.68 12334.2 c 0 -148.8 -120.63 -269.5 -269.49 -269.5 c -148.91 0 -269.53 120.7 -269.53 269.5 c 0 148.9 120.62 269.6 269.53 269.6 c 148.86 0 269.49 -120.7 269.49 -269.6" stroke-linecap="round"/>
</g>
</g>
</g>
</svg>